HIERARCHY
ROOT root
{
	OFFSET	0	13.1	24.9
	CHANNELS 6  Xposition Yposition Zposition Xrotation Yrotation Zrotation
	JOINT spine_1
	{
		OFFSET	0	9.99999	0
		CHANNELS 3  Xrotation Yrotation Zrotation
		JOINT spine_2
		{
			OFFSET	0	112	-10
			CHANNELS 3  Xrotation Yrotation Zrotation
			JOINT spine_3
			{
				OFFSET	0	206.5	19.3
				CHANNELS 3  Xrotation Yrotation Zrotation
				JOINT spine_4
				{
					OFFSET	0	110.4	14.6
					CHANNELS 3  Xrotation Yrotation Zrotation
					JOINT neck_1
					{
						OFFSET	0	71.8	-50.3
						CHANNELS 3  Xrotation Yrotation Zrotation
						JOINT neck_2
						{
							OFFSET	0	86.2	-25.8
							CHANNELS 3  Xrotation Yrotation Zrotation
							JOINT head_ee
							{
								OFFSET	0	179.8	-8.7
								CHANNELS 3  Xrotation Yrotation Zrotation
								End Site
								{
									OFFSET	1	0	0
								}
							}
						}
					}
					JOINT left_clavicle
					{
						OFFSET	-43.2	22.4	-70.8
						CHANNELS 3  Xrotation Yrotation Zrotation
						JOINT left_shoulder
						{
							OFFSET	-93.9	-5.79999	48.7
							CHANNELS 3  Xrotation Yrotation Zrotation
							JOINT left_elbow
							{
								OFFSET	-291.4	-30.8	15.2
								CHANNELS 3  Xrotation Yrotation Zrotation
								JOINT left_lowarm_twist
								{
									OFFSET	-110.7	-3.89999	13.6
									CHANNELS 3  Xrotation Yrotation Zrotation
									JOINT left_hand
									{
										OFFSET	-110.7	-3.89999	13.6
										CHANNELS 3  Xrotation Yrotation Zrotation
										JOINT left_ee
										{
											OFFSET	-80.8	-5.10001	12.1
											CHANNELS 3  Xrotation Yrotation Zrotation
											End Site
											{
												OFFSET	1	0	0
											}
										}
									}
								}
							}
						}
					}
					JOINT right_clavicle
					{
						OFFSET	43.2	22.4	-70.8
						CHANNELS 3  Xrotation Yrotation Zrotation
						JOINT right_shoulder
						{
							OFFSET	93.9	-5.79999	48.7
							CHANNELS 3  Xrotation Yrotation Zrotation
							JOINT right_elbow
							{
								OFFSET	291.4	-30.8	15.2
								CHANNELS 3  Xrotation Yrotation Zrotation
								JOINT right_lowarm_twist
								{
									OFFSET	110.7	-3.89999	13.6
									CHANNELS 3  Xrotation Yrotation Zrotation
									JOINT right_hand
									{
										OFFSET	110.7	-3.89999	13.6
										CHANNELS 3  Xrotation Yrotation Zrotation
										JOINT right_ee
										{
											OFFSET	80.8	-5.10001	12.1
											CHANNELS 3  Xrotation Yrotation Zrotation
											End Site
											{
												OFFSET	1	0	0
											}
										}
									}
								}
							}
						}
					}
				}
			}
		}
	}
	JOINT left_hip
	{
		OFFSET	-82.8	-127.5	0.300001
		CHANNELS 3  Xrotation Yrotation Zrotation
		JOINT left_knee
		{
			OFFSET	-28.2	-396.7	2.2
			CHANNELS 3  Xrotation Yrotation Zrotation
			JOINT left_ankle
			{
				OFFSET	-11.7	-411.3	35.4
				CHANNELS 3  Xrotation Yrotation Zrotation
				JOINT left_toes
				{
					OFFSET	0	-60	-88.6
					CHANNELS 3  Xrotation Yrotation Zrotation
					JOINT left_foot_ee
					{
						OFFSET	-22.5	-16.5	-42.2
						CHANNELS 3  Xrotation Yrotation Zrotation
						End Site
						{
							OFFSET	1	0	0
						}
					}
				}
			}
		}
	}
	JOINT right_hip
	{
		OFFSET	82.8	-127.5	0.300001
		CHANNELS 3  Xrotation Yrotation Zrotation
		JOINT right_knee
		{
			OFFSET	28.2	-396.7	2.2
			CHANNELS 3  Xrotation Yrotation Zrotation
			JOINT right_ankle
			{
				OFFSET	11.7	-411.3	35.4
				CHANNELS 3  Xrotation Yrotation Zrotation
				JOINT right_toes
				{
					OFFSET	0	-60	-88.6
					CHANNELS 3  Xrotation Yrotation Zrotation
					JOINT right_foot_ee
					{
						OFFSET	22.5	-16.5	-42.2
						CHANNELS 3  Xrotation Yrotation Zrotation
						End Site
						{
							OFFSET	1	0	0
						}
					}
				}
			}
		}
	}
}
MOTION
Frames: 16
Frame Time: 0.02
482.126 606.727 -396.507 72.9429 -79.8206 81.15 -4.00019 -0.172419 -2.00958 -3.99795 -0.0442212 -2.01648 -3.99311 0.517781 -1.9494 -3.99836 0.203478 -2.00668 -14.7732 3.34913 -5.5623 -14.7655 9.72633 -4.1697 -0.0 0.0 -0.0 8.09434 12.4068 15.1763 -10.632 -4.37168 67.3367 0.752152 -20.435 0.135573 -21.4178 -1.2247 2.43349 -4.28372 29.0677 -11.7472 -0.0 0.0 -0.0 12.1177 16.675 -24.3997 3.9193 9.84017 -51.9912 1.56544 37.79 -0.535848 33.0253 0.0370183 4.16076 4.58773 -22.2448 -39.0814 0.0 0.0 0.0 34.2525 -7.48393 -20.9371 -70.4084 -3.42227 9.56507 16.7901 0.678699 -2.34116 -4.85696 0.0 0.0 -0.0 0.0 -0.0 11.044 13.5832 -21.7394 -57.1242 1.89759 -8.20105 40.3123 -3.97806 4.88539 17.8958 -0.0 -0.0 0.0 0.0 0.0 
492.517 609.163 -394.416 69.5217 -79.7838 77.6857 -4.19449 -0.0703902 -1.9507 -4.19238 0.0538563 -1.95122 -4.19125 0.600331 -1.85739 -4.19594 0.299515 -1.92886 -13.6128 4.15893 -5.12322 -13.6247 11.0849 -3.59755 -0.0 0.0 -0.0 8.00902 12.6878 15.0049 -11.3032 -3.5065 67.6713 0.644302 -17.7015 0.100329 -20.568 -1.1592 2.34655 -4.24491 28.7691 -11.7307 -0.0 0.0 -0.0 12.1997 16.7918 -24.5826 6.63657 9.58124 -52.3746 1.6867 39.8769 -0.611897 33.7334 0.064046 4.24713 4.34841 -19.2339 -36.6582 0.0 0.0 0.0 37.3257 -7.52796 -19.7652 -68.8677 -3.22966 9.42532 9.51521 3.20127 -1.35935 -5.22302 0.0 0.0 -0.0 0.0 -0.0 10.3753 18.065 -23.6604 -53.0165 1.49491 -7.71263 40.8387 -8.89901 4.94179 20.8011 -0.0 -0.0 0.0 0.0 0.0 
501.189 608.187 -391.808 65.8666 -79.6307 74.1889 -4.56194 -0.0436259 -1.83623 -4.56006 0.0732869 -1.83529 -4.55969 0.597549 -1.73687 -4.56376 0.315792 -1.80941 -12.1164 4.14944 -5.57086 -12.0958 11.4441 -4.18223 -0.0 0.0 -0.0 7.57188 12.3444 14.2657 -11.9233 -2.48853 67.5885 0.597079 -16.4771 0.0864509 -19.3659 -1.06879 2.22194 -4.72621 28.8166 -14.3756 -0.0 0.0 -0.0 12.0155 17.2012 -24.1396 8.74595 10.5963 -52.2913 1.8202 42.0362 -0.699421 32.3396 0.011863 4.0768 4.49321 -18.9883 -37.7457 0.0 0.0 0.0 38.9922 -7.54007 -18.7782 -66.4257 -2.93231 9.19344 6.16257 6.50758 -0.887283 -5.823 0.0 0.0 -0.0 0.0 -0.0 9.35523 17.8243 -24.0446 -52.2741 1.42594 -7.62138 40.4832 -9.05875 4.91217 21.9279 -0.0 -0.0 0.0 0.0 0.0 
506.548 607.288 -387.96 59.4888 -79.1762 67.9115 -4.84087 0.030122 -1.83002 -4.83902 0.14649 -1.8244 -4.84106 0.672931 -1.70211 -4.84488 0.395716 -1.78699 -13.6498 4.52381 -5.47798 -13.6666 11.9959 -3.8186 -0.0 0.0 -0.0 7.36215 13.4792 13.8288 -12.4322 -2.2654 67.4743 0.570885 -15.7911 0.0791721 -18.6229 -1.01422 2.14399 -4.53283 28.3532 -13.6133 -0.0 0.0 -0.0 12.189 17.3125 -24.5324 11.9794 11.3932 -51.0864 1.92692 43.663 -0.772005 31.9058 -0.00353035 4.02354 4.19176 -17.6479 -35.0998 0.0 0.0 0.0 40.5485 -7.45365 -17.7287 -64.1483 -2.66418 8.96605 2.21838 6.32098 -0.323047 -6.51624 0.0 0.0 -0.0 0.0 -0.0 9.18791 17.6694 -24.6606 -51.5642 1.36111 -7.5333 39.6312 -10.2754 4.84602 23.4928 -0.0 -0.0 0.0 0.0 0.0 
516.213 607.652 -383.88 56.9758 -78.913 65.2207 -5.14597 0.0686301 -1.81843 -5.14415 0.184183 -1.81038 -5.14737 0.71386 -1.6739 -5.15101 0.440584 -1.7656 -11.1403 4.95493 -5.98369 -11.1086 13.2977 -4.46962 -0.0 0.0 -0.0 7.28819 13.5303 13.6988 -12.9495 -1.79239 67.3475 0.523756 -14.5451 0.0668399 -17.1188 -0.906887 1.98408 -4.31134 28.1866 -12.4856 -0.0 0.0 -0.0 12.2059 17.2972 -24.5719 14.3377 12.083 -51.132 2.12099 46.4099 -0.909359 30.824 -0.0401538 3.89023 4.2506 -17.1317 -35.434 0.0 0.0 0.0 41.5372 -7.99562 -16.3446 -61.4481 -2.35837 8.68302 -1.85634 8.06177 0.27282 -7.44095 0.0 0.0 -0.0 0.0 -0.0 8.72571 19.1938 -25.4322 -49.5143 1.18014 -7.27464 41.0759 -11.3258 4.98136 23.8528 -0.0 -0.0 0.0 0.0 0.0 
524.362 610.065 -386.183 54.3214 -78.79 62.7522 -5.3338 0.106941 -1.71366 -5.33219 0.215753 -1.70339 -5.33636 0.717348 -1.56 -5.33946 0.462009 -1.65368 -10.6271 5.31768 -6.06726 -10.5886 14.0681 -4.52 -0.0 0.0 -0.0 7.21872 13.9122 13.5561 -13.6418 -1.23621 67.7665 0.459105 -12.8129 0.0515493 -15.9578 -0.826945 1.85879 -4.17649 28.2691 -11.6796 -0.0 0.0 -0.0 12.3234 17.4016 -24.8371 16.694 12.6654 -51.309 2.27011 48.3483 -1.0191 30.0618 -0.0644407 3.79591 4.13369 -16.211 -34.3085 0.0 0.0 0.0 43.8694 -8.8605 -14.4145 -58.3522 -2.02471 8.34141 -4.44085 9.16554 0.656135 -8.02097 0.0 0.0 -0.0 0.0 -0.0 8.1939 20.3337 -25.7718 -47.9447 1.04792 -7.07235 41.9192 -12.2791 5.06344 24.4265 -0.0 -0.0 0.0 0.0 0.0 
528.557 608.208 -385.36 49.2436 -78.5112 57.1665 -5.4327 -0.0420966 -1.5833 -5.4313 0.0587254 -1.58277 -5.43064 0.533731 -1.49124 -5.43362 0.29155 -1.5568 -11.8345 4.70667 -4.23235 -11.8503 11.6522 -2.76144 -0.0 0.0 -0.0 7.11552 14.2518 13.3598 -14.0619 -0.959075 67.6846 0.432013 -12.0797 0.0457103 -13.6199 -0.673778 1.60174 -4.16833 28.7568 -11.3161 -0.0 0.0 -0.0 12.3627 17.9999 -24.8955 20.5702 13.5901 -51.6324 2.17378 47.1124 -0.947815 29.0147 -0.0957551 3.66583 3.57185 -15.4402 -29.9064 0.0 0.0 0.0 45.6812 -9.57173 -12.6404 -54.6357 -1.64942 7.90854 -6.39046 9.61298 0.947622 -8.48117 0.0 0.0 -0.0 0.0 -0.0 8.49237 21.8243 -26.2077 -46.1544 0.903983 -6.8374 41.8398 -15.8009 5.10749 29.1695 -0.0 -0.0 0.0 0.0 0.0 
536.398 601.171 -385.812 44.7377 -78.5221 51.9671 -5.37131 -0.174252 -1.56992 -5.36994 -0.0740136 -1.57782 -5.36537 0.403907 -1.52706 -5.36859 0.157699 -1.57167 -11.5562 4.00525 -2.36423 -11.5788 9.12069 -1.18065 -0.0 0.0 -0.0 7.08075 14.9002 13.2603 -15.1362 -0.348716 68.158 0.396932 -11.1243 0.0386549 -11.8992 -0.567834 1.40872 -4.15459 29.0904 -11.0229 -0.0 0.0 -0.0 12.645 18.9983 -25.4884 24.9451 14.1855 -51.3666 2.03217 45.1855 -0.845684 27.6759 -0.13232 3.49872 2.79085 -13.9808 -23.9421 0.0 0.0 0.0 46.9386 -8.65266 -11.0256 -46.2149 -0.908721 6.8454 -7.23699 10.184 1.0749 -8.53937 0.0 0.0 -0.0 0.0 -0.0 8.20582 21.6642 -25.5122 -45.8636 0.881301 -6.79882 42.4102 -19.3716 5.22995 34.9129 -0.0 -0.0 0.0 0.0 0.0 
544.475 596.498 -389.629 39.4749 -78.3731 46.6325 -5.33723 -0.194759 -1.60761 -5.3358 -0.092082 -1.61674 -5.33052 0.397423 -1.56985 -5.33393 0.144541 -1.6129 -8.94673 3.16899 -2.43102 -8.93844 7.62169 -1.65516 -0.0 0.0 -0.0 7.01897 15.3716 13.1271 -16.1397 0.134809 68.1648 0.356008 -10.0018 0.0311524 -10.5925 -0.491292 1.26009 -4.76454 28.5544 -14.776 -0.0 0.0 -0.0 12.5788 19.7949 -25.2821 28.3591 13.7412 -51.7419 2.00846 44.8494 -0.828912 26.1448 -0.169331 3.30665 1.64969 -13.4446 -16.0925 0.0 0.0 0.0 46.7207 -8.70817 -9.61989 -41.7433 -0.581385 6.24058 -4.67033 11.4778 0.691191 -8.90393 0.0 0.0 -0.0 0.0 -0.0 6.23072 15.9399 -22.568 -48.2992 1.07729 -7.11835 41.6583 -13.6994 5.05928 38.54 -0.0 -0.0 0.0 0.0 0.0 
562.806 592.268 -395.152 36.7338 -78.2513 43.9748 -5.46523 -0.150436 -1.76382 -5.4635 -0.0379123 -1.76982 -5.45921 0.498902 -1.69849 -5.46316 0.22444 -1.75594 -9.53547 3.00516 -1.12138 -9.54159 6.41187 -0.371577 -0.0 0.0 -0.0 7.11497 17.5686 13.1291 -17.5987 -0.230604 67.545 0.437279 -12.2225 0.0468187 -6.49514 -0.273619 0.783484 -4.18063 28.7149 -11.4113 -0.0 0.0 -0.0 13.1099 20.5803 -26.4588 30.3458 13.669 -50.6543 2.05646 45.5257 -0.862964 24.9596 -0.19445 3.15733 1.12729 -13.1264 -12.5826 0.0 0.0 0.0 46.7947 -9.85345 -7.5218 -37.5494 -0.318267 5.65214 -6.06908 15.7768 0.906412 -7.89665 0.0 0.0 -0.0 0.0 -0.0 7.4926 18.7539 -23.6464 -50.7027 1.28392 -7.42537 42.2335 -14.3312 5.11736 40.0111 -0.0 -0.0 0.0 0.0 0.0 
572.931 583.324 -399.799 36.3745 -78.0722 42.5897 -5.56105 -0.256194 -1.59559 -5.55965 -0.154157 -1.60865 -5.55248 0.341882 -1.57945 -5.55595 0.0881804 -1.61361 -10.0226 1.83188 -0.324767 -10.0263 3.66771 0.139507 -0.0 0.0 -0.0 7.4637 18.3331 13.6226 -17.5815 1.16014 67.1316 0.346894 -9.75074 0.0295892 -7.72211 -0.33521 0.927801 -4.82672 27.7629 -15.6911 -0.0 0.0 -0.0 12.7041 19.5847 -25.5869 33.2188 14.199 -52.8015 1.96359 44.2025 -0.797446 24.5215 -0.202953 3.10201 0.813563 -11.1306 -9.8229 0.0 0.0 0.0 47.7683 -8.91638 -5.19767 -32.7364 -0.0704336 4.9557 -5.78272 16.804 0.865314 -8.33908 0.0 0.0 -0.0 0.0 -0.0 5.72341 18.6798 -22.8966 -50.9849 1.30903 -7.46086 42.8971 -16.4615 5.20957 40.3841 -0.0 -0.0 0.0 0.0 0.0 
587.768 577.178 -405.174 34.4665 -76.6944 40.4857 -5.7251 -0.307945 -1.80124 -5.72331 -0.192723 -1.81717 -5.71346 0.373533 -1.78879 -5.71791 0.0863886 -1.82532 -10.1208 1.67786 1.09405 -10.1196 2.42193 1.48569 -0.0 0.0 -0.0 8.02071 19.4264 14.3946 -18.2718 1.6545 66.2275 0.376688 -10.57 0.034845 -6.30624 -0.264413 0.761152 -4.48734 26.7651 -14.4386 -0.0 0.0 -0.0 12.8296 19.2024 -25.9035 34.4102 14.2885 -51.8888 1.95788 44.1191 -0.793466 24.0887 -0.210935 3.0473 0.368186 -9.65955 -6.37789 0.0 0.0 0.0 46.0897 -7.90758 -4.37876 -28.0225 0.114714 4.25619 -4.57911 17.6228 0.685239 -7.87439 0.0 0.0 -0.0 0.0 -0.0 5.12269 17.0171 -22.0643 -55.3845 1.72275 -7.99768 42.0505 -13.0843 5.08443 40.202 -0.0 -0.0 0.0 0.0 0.0 
599.247 568.816 -407.796 34.5626 -75.8551 40.3305 -6.15628 -0.58923 -1.81268 -6.15457 -0.472711 -1.84648 -6.13473 0.129853 -1.90158 -6.13973 -0.172041 -1.89823 -11.5248 2.32463 0.681874 -11.531 3.9561 1.29224 -0.0 0.0 -0.0 8.42124 19.6617 14.9973 -18.897 2.2714 65.7121 0.350397 -9.84729 0.0301855 -3.74384 -0.146862 0.455369 -4.90068 26.2597 -17.1951 -0.0 0.0 -0.0 12.4558 18.7756 -25.0646 37.3686 14.4972 -53.5198 2.03806 45.2684 -0.849865 24.6118 -0.201234 3.11342 0.00376526 -10.2774 -4.27906 0.0 0.0 0.0 45.7214 -7.02311 -3.60535 -26.577 0.15988 4.03896 -2.34997 19.8244 0.352588 -7.98961 0.0 0.0 -0.0 0.0 -0.0 4.85039 16.3814 -21.7072 -58.8457 2.07664 -8.39704 41.8741 -11.4374 5.05041 40.1805 -0.0 -0.0 0.0 0.0 0.0 
613.325 559.756 -412.925 35.4806 -74.8213 41.0992 -6.4694 -0.759137 -1.79953 -6.46783 -0.64311 -1.84417 -6.44209 -0.0223021 -1.95293 -6.44727 -0.330392 -1.92491 -12.5998 2.82737 1.41804 -12.6061 4.47225 2.17923 -0.0 0.0 -0.0 8.76543 19.5665 15.553 -19.1998 2.70407 65.2143 0.322917 -9.08845 0.0256651 -0.919761 -0.0333138 0.112733 -4.82508 25.7135 -17.1384 -0.0 0.0 -0.0 12.3616 18.8955 -24.8397 38.9152 14.4416 -53.5501 2.083 45.8927 -0.881957 24.9929 -0.193787 3.16153 -0.266944 -10.7931 -2.75831 0.0 0.0 0.0 45.2942 -6.18509 -2.94379 -24.7153 0.209948 3.75765 -0.41635 20.9054 0.0624638 -7.84416 0.0 0.0 -0.0 0.0 -0.0 3.8921 14.965 -21.4139 -62.3983 2.46445 -8.78424 41.6641 -9.10532 5.01309 40.3141 -0.0 -0.0 0.0 0.0 0.0 
626.673 555.432 -415.673 34.4984 -74.5317 40.2554 -6.68092 -0.803199 -1.97477 -6.67901 -0.675938 -2.02185 -6.649 0.0108561 -2.13177 -6.6552 -0.325878 -2.10676 -13.0059 3.57703 1.37236 -13.0232 5.94345 2.37498 -0.0 0.0 -0.0 9.44586 19.3561 16.6693 -19.4045 2.89737 64.8281 0.312194 -8.79145 0.0239986 1.58403 0.0531123 -0.195335 -4.79506 25.2567 -17.2834 -0.0 0.0 -0.0 12.2263 18.9808 -24.5225 39.5746 14.5689 -53.8884 2.11939 46.3882 -0.908198 25.3609 -0.186291 3.20795 -0.42217 -11.1204 -1.90527 0.0 0.0 0.0 44.9942 -5.58741 -2.49917 -23.3313 0.241228 3.54757 1.4852 21.5156 -0.222398 -6.92724 0.0 0.0 -0.0 0.0 -0.0 2.92506 15.1783 -21.7508 -63.7131 2.61399 -8.92139 41.5139 -5.96998 4.98736 40.2142 -0.0 -0.0 0.0 0.0 0.0 
645.375 550.682 -418.593 35.4804 -74.5652 41.1334 -6.88141 -0.627593 -2.10679 -6.87907 -0.492293 -2.14244 -6.85404 0.231517 -2.18602 -6.86069 -0.116544 -2.19515 -11.3571 6.36904 2.68978 -11.387 10.294 4.3219 -0.0 0.0 -0.0 9.94308 19.1984 17.4991 -19.4217 3.01532 64.3077 0.305359 -8.60188 0.0229652 3.68922 0.115297 -0.457037 -4.87665 25.5129 -17.5873 -0.0 0.0 -0.0 12.0845 18.9191 -24.2005 39.8498 14.7355 -53.6947 2.19168 47.3466 -0.96096 26.3145 -0.165484 3.32798 -0.549909 -12.5923 -1.71404 0.0 0.0 0.0 44.2362 -4.71222 -2.99664 -23.9282 0.228361 3.63826 -0.919052 22.0396 0.138666 -7.05205 0.0 0.0 -0.0 0.0 -0.0 -0.0427278 13.6797 -20.4203 -61.743 2.3911 -8.71462 41.0545 -4.30915 4.94803 40.2435 -0.0 -0.0 0.0 0.0 0.0 
